<?xml version="1.0" encoding="utf-8"?>
<!-- Generator: Adobe Illustrator 25.0.1, SVG Export Plug-In . SVG Version: 6.00 Build 0)  -->
<svg version="1.1" id="Layer_1" xmlns="http://www.w3.org/2000/svg" xmlns:xlink="http://www.w3.org/1999/xlink" x="0px" y="0px"
	 viewBox="0 0 19 19" style="enable-background:new 0 0 19 19;" xml:space="preserve">
<path d="M11,6.6V4c0-0.3,0.1-0.5,0.3-0.7l3-3c0.4-0.4,1-0.4,1.4,0c0.1,0.1,0.1,0.2,0.2,0.3l0.9,1.7l1.7,0.8c0.5,0.2,0.7,0.8,0.4,1.3
	c0,0.1-0.1,0.2-0.2,0.3l-3,3C15.5,7.9,15.3,8,15,8h-2.6l-2.7,2.7c-0.4,0.4-1,0.4-1.4,0c-0.4-0.4-0.4-1,0-1.4L11,6.6z M9,1
	c0.6,0,1,0.4,1,1S9.6,3,9,3c-3.9,0-7,3.1-7,7s3.1,7,7,7s7-3.1,7-7c0-0.6,0.4-1,1-1s1,0.4,1,1c0,5-4,9-9,9s-9-4-9-9S4,1,9,1z M9,5
	c0.6,0,1,0.4,1,1S9.6,7,9,7c-1.7,0-3,1.3-3,3s1.3,3,3,3s3-1.3,3-3c0-0.6,0.4-1,1-1c0.6,0,1,0.4,1,1c0,2.8-2.2,5-5,5s-5-2.2-5-5
	S6.2,5,9,5z M13,4.4V6h1.6l1.7-1.7l-0.8-0.4c-0.2-0.1-0.3-0.3-0.4-0.4l-0.4-0.8L13,4.4z"/>
<text transform="matrix(1 0 0 1 -3 36.9995)" style="font-family:'HelveticaNeue-Bold'; font-size:5px;">Created by Graphik Designz</text>
<text transform="matrix(1 0 0 1 -3 41.9995)" style="font-family:'HelveticaNeue-Bold'; font-size:5px;">from the Noun Project</text>
</svg>
