<?xml version="1.0" encoding="utf-8"?>
<!-- Generator: Adobe Illustrator 25.0.1, SVG Export Plug-In . SVG Version: 6.00 Build 0)  -->
<svg version="1.1" id="Layer_1" xmlns="http://www.w3.org/2000/svg" xmlns:xlink="http://www.w3.org/1999/xlink" x="0px" y="0px"
	 viewBox="0 0 70.7 98" style="enable-background:new 0 0 70.7 98;" xml:space="preserve">
<g>
	<g>
		<g>
			<path d="M25.3,79.2c-7.2,0-13.1-5.9-13.1-13.1S18.1,53,25.3,53c3.5,0,6.8,1.4,9.2,3.8l4.3,4.3c1.1,1.2,1,3.1-0.2,4.2
				c-1.1,1-2.8,1-3.9,0L30.4,61c-2.9-2.7-7.4-2.6-10.1,0.3c-2.6,2.8-2.6,7,0,9.8c1.4,1.4,3.3,2.2,5.2,2.1h0.1c1.6,0,3,1.3,3,2.9
				s-1.3,3-2.9,3L25.3,79.2L25.3,79.2z"/>
			<path d="M42,79.2c-4.4,0-8.6-1.7-11.6-4.8l-5.2-5.1c-1.2-1.1-1.2-3-0.1-4.2c1.1-1.2,3-1.2,4.2-0.1c0,0,0,0,0.1,0.1l5.2,5.1
				c4.1,4.1,10.8,4.1,14.9,0s4.1-10.8,0-14.9c-3-3-7.6-3.9-11.5-2.3c-1.5,0.6-3.2-0.2-3.8-1.7s0.1-3.1,1.5-3.8
				c8.4-3.5,18,0.5,21.5,8.9s-0.5,18-8.9,21.5C46.3,78.8,44.1,79.2,42,79.2z"/>
			<path d="M57.8,97.7h-45c-6.9,0-12.4-5.6-12.4-12.4v-45c0-6.9,5.6-12.4,12.4-12.4h45c6.9,0,12.4,5.6,12.4,12.4v45
				C70.3,92.1,64.7,97.7,57.8,97.7z M12.8,33.7c-3.6,0-6.5,2.9-6.5,6.5v45c0,3.6,2.9,6.5,6.5,6.5h45c3.6,0,6.5-2.9,6.5-6.5v-45
				c0-3.6-2.9-6.5-6.5-6.5H12.8z"/>
		</g>
	</g>
</g>
<text transform="matrix(1 0 0 1 -14.6747 126.6506)" style="display:none;enable-background:new    ; font-family:'HelveticaNeue-Bold'; font-size:5px;">Created by Shiva</text>
<text transform="matrix(1 0 0 1 -14.6747 131.6506)" style="display:none;enable-background:new    ; font-family:'HelveticaNeue-Bold'; font-size:5px;">from the Noun Project</text>
</svg>
