<?xml version="1.0" encoding="utf-8"?>
<!-- Generator: Adobe Illustrator 25.0.1, SVG Export Plug-In . SVG Version: 6.00 Build 0)  -->
<svg version="1.1" id="Layer_1" xmlns="http://www.w3.org/2000/svg" xmlns:xlink="http://www.w3.org/1999/xlink" x="0px" y="0px"
	 viewBox="0 0 64 64.9" style="enable-background:new 0 0 64 64.9;" xml:space="preserve">
<g>
	<path d="M37,53.3c1.8-2.8,1.1-6.5-1.6-8.3c-2.8-1.8-6.5-1.1-8.3,1.6c-1.4,2-1.4,4.7,0,6.7c-3.1,1.8-5,5.1-5,8.7c0,1.1,0.9,2,2,2h16
		c1.1,0,2-0.9,2-2C42,58.4,40.1,55.1,37,53.3z M30,50c0-1.1,0.9-2,2-2c1.1,0,2,0.9,2,2s-0.9,2-2,2C30.9,52,30,51.1,30,50z M26.3,60
		c1.1-3.1,4.5-4.8,7.7-3.7c1.7,0.6,3.1,1.9,3.7,3.7H26.3z"/>
	<path d="M37,9.3c1.8-2.8,1.1-6.5-1.6-8.3c-2.8-1.8-6.5-1.1-8.3,1.6c-1.4,2-1.4,4.7,0,6.7c-3.1,1.8-5,5.1-5,8.7c0,1.1,0.9,2,2,2h16
		c1.1,0,2-0.9,2-2C42,14.4,40.1,11.1,37,9.3z M30,6c0-1.1,0.9-2,2-2c1.1,0,2,0.9,2,2s-0.9,2-2,2C30.9,8,30,7.1,30,6z M26.3,16
		c1.1-3.1,4.5-4.8,7.7-3.7c1.7,0.6,3.1,1.9,3.7,3.7H26.3z"/>
	<path d="M20,40c0-3.6-1.9-6.9-5-8.7c1.8-2.8,1.1-6.5-1.6-8.3S6.9,21.9,5,24.6c-1.4,2-1.4,4.7,0,6.7c-3.1,1.8-5,5.1-5,8.7
		c0,1.1,0.9,2,2,2h16C19.1,42,20,41.1,20,40z M8,28c0-1.1,0.9-2,2-2s2,0.9,2,2s-0.9,2-2,2S8,29.1,8,28z M4.3,38
		c1.1-3.1,4.5-4.8,7.7-3.7c1.7,0.6,3.1,1.9,3.7,3.7H4.3z"/>
	<path d="M59,31.3c1.8-2.8,1.1-6.5-1.6-8.3s-6.5-1.1-8.3,1.6c-1.4,2-1.4,4.7,0,6.7c-3.1,1.8-5,5.1-5,8.7c0,1.1,0.9,2,2,2h16
		c1.1,0,2-0.9,2-2C64,36.4,62.1,33.1,59,31.3z M52,28c0-1.1,0.9-2,2-2s2,0.9,2,2s-0.9,2-2,2S52,29.1,52,28z M48.3,38
		c1.1-3.1,4.5-4.8,7.7-3.7c1.7,0.6,3.1,1.9,3.7,3.7H48.3z"/>
	<path d="M44.7,11.7c2.4,1.5,4.5,3.4,6.2,5.7c0.7,0.9,1.9,1,2.8,0.4c0.9-0.7,1-1.9,0.4-2.8l0,0c-2-2.6-4.5-4.8-7.3-6.6
		c-0.9-0.6-2.2-0.3-2.8,0.6S43.8,11.1,44.7,11.7z"/>
	<path d="M53.7,46.4c-0.9-0.7-2.1-0.5-2.8,0.3c0,0,0,0,0,0c-1.7,2.2-3.8,4.1-6.1,5.6c-0.9,0.6-1.2,1.8-0.7,2.7
		c0.6,0.9,1.8,1.2,2.7,0.7c0,0,0,0,0.1,0c2.7-1.7,5.2-3.9,7.2-6.5C54.7,48.4,54.6,47.1,53.7,46.4z"/>
	<path d="M17.1,8.3c-2.8,1.8-5.3,4-7.3,6.6c-0.7,0.9-0.5,2.1,0.4,2.8c0.9,0.7,2.1,0.5,2.8-0.4c1.7-2.2,3.8-4.2,6.2-5.7
		c0.9-0.6,1.2-1.8,0.6-2.8C19.3,8,18.1,7.7,17.1,8.3z"/>
	<path d="M19.2,52.3c-2.4-1.5-4.4-3.4-6.1-5.6c-0.7-0.9-1.9-1-2.8-0.3c-0.9,0.7-1,1.9-0.3,2.8l0,0c2,2.6,4.4,4.7,7.2,6.5
		c0.9,0.6,2.2,0.3,2.8-0.6C20.5,54.2,20.2,52.9,19.2,52.3C19.3,52.3,19.2,52.3,19.2,52.3z"/>
	<path d="M32,38c3.3,0,6-2.7,6-6s-2.7-6-6-6s-6,2.7-6,6C26,35.3,28.7,38,32,38z M32,30c1.1,0,2,0.9,2,2c0,1.1-0.9,2-2,2
		c-1.1,0-2-0.9-2-2C30,30.9,30.9,30,32,30z"/>
</g>
<text transform="matrix(1 0 0 1 0 79)" style="font-family:'HelveticaNeue-Bold'; font-size:5px;">Created by Berkah Icon</text>
<text transform="matrix(1 0 0 1 0 84)" style="font-family:'HelveticaNeue-Bold'; font-size:5px;">from the Noun Project</text>
</svg>
