<?xml version="1.0" encoding="utf-8"?>
<!-- Generator: Adobe Illustrator 25.0.1, SVG Export Plug-In . SVG Version: 6.00 Build 0)  -->
<svg version="1.1" id="Layer_1" xmlns="http://www.w3.org/2000/svg" xmlns:xlink="http://www.w3.org/1999/xlink" x="0px" y="0px"
	 viewBox="0 0 29.7 49.5" style="enable-background:new 0 0 29.7 49.5;" xml:space="preserve">
<style type="text/css">
	.st0{fill-rule:evenodd;clip-rule:evenodd;}
</style>
<desc>Created with Sketch.</desc>
<g>
	<g transform="translate(-168.000000, -176.000000)">
		<g transform="translate(168.000000, 176.000000)">
			<path class="st0" d="M9.2,24.1c-3.1,0-5.5-2.5-5.5-5.5c0-3.1,2.5-5.5,5.5-5.5h11.1c3.1,0,5.5,2.5,5.5,5.5c0,3.1-2.5,5.5-5.5,5.5
				H9.2z"/>
			<path class="st0" d="M9,36.8h5.6V25.7H9c-1.5,0-2.9,0.6-3.9,1.6c-1,1-1.6,2.4-1.6,3.9C3.5,34.3,6,36.8,9,36.8"/>
			<path class="st0" d="M20.7,25.8c-3.1,0-5.5,2.5-5.5,5.5c0,3.1,2.5,5.5,5.5,5.5s5.5-2.5,5.5-5.5C26.3,28.3,23.8,25.8,20.7,25.8"/>
			<path class="st0" d="M14.6,38.4H8.9v0c-3,0.1-5.3,2.5-5.3,5.5c0,3.1,2.5,5.5,5.5,5.5c3,0,5.4-2.3,5.5-5.3h0v-0.1
				c0-0.1,0-0.1,0-0.2c0-0.1,0-0.1,0-0.2V38.4z"/>
		</g>
	</g>
</g>
<text transform="matrix(1 0 0 1 2.5652 64.8042)" style="font-family:'HelveticaNeue-Bold'; font-size:5px;">Created by Anton Barbarov</text>
<text transform="matrix(1 0 0 1 2.5652 69.8042)" style="font-family:'HelveticaNeue-Bold'; font-size:5px;">from the Noun Project</text>
</svg>
