<?xml version="1.0" encoding="utf-8"?>
<!-- Generator: Adobe Illustrator 25.0.1, SVG Export Plug-In . SVG Version: 6.00 Build 0)  -->
<svg version="1.1" xmlns="http://www.w3.org/2000/svg" xmlns:xlink="http://www.w3.org/1999/xlink" x="0px" y="0px"
	 viewBox="0 0 95 67.6" style="enable-background:new 0 0 95 67.6;" xml:space="preserve">
<g id="Layer_2">
</g>
<g id="Layer_1">
	<g>
		<path d="M80.7,39c-7.8,0-14.2,6.4-14.2,14.3s6.4,14.3,14.3,14.3S95,61.2,95,53.3S88.6,39,80.7,39z M87.2,51.6l-7,7
			c-0.4,0.4-0.9,0.6-1.4,0.6s-1-0.2-1.4-0.6l-3.5-3.5c-0.8-0.8-0.8-2.1,0-2.9c0.8-0.8,2.1-0.8,2.9,0l2,2l5.5-5.5
			c0.8-0.8,2.1-0.8,2.9,0C88,49.5,88,50.8,87.2,51.6z"/>
		<path d="M14.3,0C6.4,0,0,6.4,0,14.3s6.4,14.3,14.3,14.3s14.2-6.4,14.2-14.3S22.1,0,14.3,0z M19.9,17.1c0.8,0.8,0.8,2.1,0,2.9
			c-0.4,0.4-0.9,0.6-1.4,0.6s-1-0.2-1.4-0.6l-2.8-2.8L11.5,20c-0.4,0.4-0.9,0.6-1.4,0.6s-1-0.2-1.4-0.6c-0.8-0.8-0.8-2.1,0-2.9
			l2.8-2.8l-2.8-2.8c-0.8-0.8-0.8-2.1,0-2.9c0.8-0.8,2.1-0.8,2.9,0l2.8,2.8l2.8-2.8c0.8-0.8,2.1-0.8,2.9,0s0.8,2.1,0,2.9l-3,2.8
			L19.9,17.1z"/>
		<path d="M57.4,30.9c-0.3-1.2-1.5-2.1-2.8-1.8c-1.2,0.3-2.1,1.5-1.8,2.8l0.7,3.5l-14.9-9.7c-1.1-0.7-2.6-0.4-3.3,0.7
			c-0.7,1.1-0.4,2.6,0.7,3.3l14.9,9.7l-3.5,0.7c-1.2,0.3-2.1,1.5-1.8,2.8c0.1,0.7,0.5,1.2,1,1.5c0.5,0.3,1.1,0.5,1.8,0.3l9.1-1.9
			c1.2-0.3,2.1-1.5,1.8-2.8L57.4,30.9z"/>
	</g>
	<text transform="matrix(1 0 0 1 -2.5 79.3)" style="font-family:'HelveticaNeue-Bold'; font-size:5px;">Created by Adrien Coquet</text>
	<text transform="matrix(1 0 0 1 -2.5 84.3)" style="font-family:'HelveticaNeue-Bold'; font-size:5px;">from the Noun Project</text>
</g>
</svg>
