<?xml version="1.0" encoding="utf-8"?>
<!-- Generator: Adobe Illustrator 25.0.1, SVG Export Plug-In . SVG Version: 6.00 Build 0)  -->
<svg version="1.1" id="Layer_1" xmlns="http://www.w3.org/2000/svg" xmlns:xlink="http://www.w3.org/1999/xlink" x="0px" y="0px"
	 viewBox="0 0 1237.9 357" style="enable-background:new 0 0 1237.9 357;" xml:space="preserve">
<style type="text/css">
	.st0{fill:#4D4F54;}
</style>
<path class="st0" d="M13,198V63.2h33.8L78.2,119c4.4,7.9,8.3,15.6,8.3,15.6s0,0.8,0-16.6l-0.9-54.8h30.8V198H86.5
	c-3.2-7.1-42.9-89.3-44.1-92.6v36.8V198H13z"/>
<path class="st0" d="M168.7,87.8h-51.2v34.8h44.6v24.6h-44.6V198h-31v-63.4V63.2h82.2V87.8z"/>
<path class="st0" d="M171,145.6h32.4l-1.4-4.8c-3.9-13.1-7.1-24.2-9.6-33.4c-2.4-9.2-3.9-15.1-4.4-17.8l-0.8-4
	c-1.1,7.3-6,25.7-14.8,55.2L171,145.6z M230.5,254l-19.7-83.6h-47.2l-8.2,27.6h-32.2l45-134.8H181L162.7,0L190,1l73.5,253H230.5z"/>
</svg>
