<?xml version="1.0" encoding="utf-8"?>
<!-- Generator: Adobe Illustrator 25.0.1, SVG Export Plug-In . SVG Version: 6.00 Build 0)  -->
<svg version="1.1" id="Layer_1" xmlns="http://www.w3.org/2000/svg" xmlns:xlink="http://www.w3.org/1999/xlink" x="0px" y="0px"
	 viewBox="0 0 1432.3 506" style="enable-background:new 0 0 1432.3 506;" xml:space="preserve">
<style type="text/css">
	.st0{display:none;}
</style>
<g transform="translate(0.000000,406.000000) scale(0.100000,-0.100000)">
	<path d="M875.1,1515.2V354.1h230.4h230.4v1161.1v1161.1h-230.4H875.1V1515.2z"/>
	<path d="M1772.4,2672.7c0-2.4,36.4-52.1,80.6-111c84.9-111.6,286.2-379,695.5-922.2c134-178.3,249.2-329.8,255.3-336.5
		c11.5-11.5,11.5,3.6,11.5,680.9v692.4h-521.4C2007.1,2676.3,1772.4,2674.5,1772.4,2672.7z"/>
	<path class="st0" d="M3321.6,2669c-1.8-4.2-2.4-526.3-1.8-1159.9l1.8-1152l232.2-1.8l231.6-1.2v451.7v451.7h466.9h466.9V805.8
		V354.1h230.4H5180v47.3c0,25.5,0,456.6,0,956.8c0,1028.9,3.6,955.6-48.5,1061.1c-57.6,116.4-151.6,195.8-281.9,239.5l-42.4,14.6
		l-741.5,1.2C3469.6,2676.3,3324,2675.1,3321.6,2669z M4719.2,1966.9v-218.3h-466.9h-466.9v218.3v218.3h466.9h466.9V1966.9z"/>
	<path d="M1845.2,1639.5c-1.2-423.8,0-1281.8,1.8-1283.6c1.2-1.2,235.9-1.2,521.4-0.6l519,1.8L2574,773.7
		c-297.1,394.7-705.2,935.6-720.9,956.2C1847,1737.7,1845.8,1719.5,1845.2,1639.5z"/>
</g>
</svg>
